<?xml version="1.0" encoding="UTF-8" standalone="no"?>
<!DOCTYPE svg PUBLIC "-//W3C//DTD SVG 1.1//EN" "http://www.w3.org/Graphics/SVG/1.1/DTD/svg11.dtd">
<svg width="100%" height="100%" viewBox="0 0 81 82" version="1.1" xmlns="http://www.w3.org/2000/svg" xmlns:xlink="http://www.w3.org/1999/xlink" xml:space="preserve" xmlns:serif="http://www.serif.com/" style="fill-rule:evenodd;clip-rule:evenodd;stroke-linejoin:round;stroke-miterlimit:2;">
    <g transform="matrix(1,0,0,1,-9.51576,-9.46094)">
        <path d="M78.842,31.697C84.973,31.697 89.961,26.71 89.961,20.58C89.961,14.449 84.973,9.461 78.842,9.461C72.712,9.461 67.725,14.449 67.725,20.58C67.725,26.71 72.712,31.697 78.842,31.697ZM77.842,11.52L77.842,12.954C77.842,13.506 78.289,13.954 78.842,13.954C79.395,13.954 79.842,13.506 79.842,12.954L79.842,11.52C84.072,11.982 87.439,15.35 87.903,19.58L86.467,19.58C85.914,19.58 85.467,20.027 85.467,20.58C85.467,21.132 85.914,21.58 86.467,21.58L87.903,21.58C87.439,25.809 84.072,29.176 79.842,29.64L79.842,28.205C79.842,27.652 79.395,27.205 78.842,27.205C78.289,27.205 77.842,27.652 77.842,28.205L77.842,29.64C73.612,29.176 70.246,25.809 69.782,21.58L71.217,21.58C71.77,21.58 72.217,21.132 72.217,20.58C72.217,20.027 71.77,19.58 71.217,19.58L69.782,19.58C70.246,15.35 73.612,11.982 77.842,11.52Z" style="fill-rule:nonzero;"/>
    </g>
    <g transform="matrix(1,0,0,1,-9.51576,-9.46094)">
        <path d="M75.861,21.58L78.842,21.58C78.986,21.58 79.121,21.547 79.244,21.492C79.274,21.479 79.298,21.453 79.326,21.438C79.42,21.385 79.506,21.324 79.576,21.246C79.586,21.236 79.6,21.232 79.608,21.222L83.128,17.018C83.482,16.594 83.427,15.963 83.003,15.609C82.579,15.254 81.947,15.312 81.595,15.733L78.375,19.58L75.861,19.58C75.309,19.58 74.861,20.027 74.861,20.58C74.861,21.132 75.309,21.58 75.861,21.58Z" style="fill-rule:nonzero;"/>
    </g>
    <g transform="matrix(1,0,0,1,-9.51576,-9.46094)">
        <path d="M67.599,45.103C67.785,45.256 68.011,45.332 68.234,45.332C68.522,45.332 68.809,45.208 69.007,44.969C70.4,43.281 69.95,41.438 69.622,40.092C69.544,39.77 69.466,39.455 69.417,39.15C68.994,36.52 69.893,35.148 69.941,35.075C70.258,34.629 70.155,34.01 69.711,33.688C69.264,33.363 68.638,33.465 68.315,33.912C68.256,33.993 66.876,35.949 67.442,39.468C67.499,39.821 67.588,40.189 67.68,40.565C68.016,41.943 68.169,42.842 67.465,43.695C67.112,44.121 67.173,44.751 67.599,45.103Z" style="fill-rule:nonzero;"/>
    </g>
    <g transform="matrix(1,0,0,1,-9.51576,-9.46094)">
        <path d="M71.171,45.568C71.36,45.738 71.598,45.82 71.834,45.82C72.109,45.82 72.385,45.707 72.582,45.484C73.608,44.328 73.727,42.614 72.926,40.529C72.233,38.727 73.014,37.72 73.067,37.654C73.425,37.242 73.388,36.619 72.98,36.254C72.57,35.887 71.938,35.919 71.568,36.33C71.5,36.406 69.902,38.236 71.059,41.247C71.354,42.014 71.748,43.41 71.086,44.157C70.72,44.57 70.757,45.203 71.171,45.568Z" style="fill-rule:nonzero;"/>
    </g>
    <g transform="matrix(1,0,0,1,-9.51576,-9.46094)">
        <path d="M64.156,45.818C64.45,45.818 64.742,45.689 64.939,45.441C66.45,43.545 66.199,41.963 65.846,40.629C65.301,38.577 65.849,37.655 65.887,37.595C66.208,37.164 66.13,36.552 65.706,36.215C65.273,35.871 64.644,35.943 64.301,36.376C64.174,36.535 63.086,38.025 63.912,41.142C64.198,42.22 64.315,43.015 63.375,44.195C63.031,44.627 63.103,45.256 63.534,45.6C63.718,45.746 63.938,45.818 64.156,45.818Z" style="fill-rule:nonzero;"/>
    </g>
    <g transform="matrix(1,0,0,1,-9.51576,-9.46094)">
        <path d="M90.434,89.225L82.283,64.631L84.57,64.631C86.306,64.631 87.717,63.22 87.717,61.484L87.717,60.412C87.717,58.678 86.306,57.266 84.57,57.266L72.979,57.266C73.334,56.928 73.655,56.547 73.948,56.127C75.707,56.006 77.045,55.459 77.897,54.471C78.931,53.272 78.873,51.898 78.83,51.508C78.683,50.117 77.021,49.915 75.899,49.938C75.905,49.715 75.898,49.498 75.877,49.289C75.871,49.236 75.845,49.193 75.832,49.145C75.698,46.635 69.492,46.503 68.235,46.503C66.987,46.503 60.866,46.635 60.647,49.092C60.627,49.158 60.595,49.221 60.588,49.293C60.55,49.688 60.563,50.116 60.627,50.545C61.004,53.557 61.967,55.802 63.502,57.266L54.121,57.266C54.492,56.652 54.719,55.941 54.719,55.174L54.719,54.025C54.719,53.473 54.271,53.025 53.719,53.025L52.611,53.025L52.611,34.967C52.611,33.653 51.584,32.584 50.322,32.584L20.018,32.584C18.756,32.584 17.729,33.653 17.729,34.967L17.729,53.025L16.621,53.025C16.068,53.025 15.621,53.549 15.621,54.102L15.621,55.174C15.621,55.941 15.848,56.652 16.219,57.266L15.43,57.266C13.695,57.266 12.284,58.678 12.284,60.412L12.284,61.484C12.284,63.22 13.695,64.631 15.43,64.631L17.717,64.631L9.566,89.225C9.466,89.529 9.517,89.865 9.705,90.125C9.893,90.385 10.194,90.539 10.516,90.539L13.582,90.539C13.957,90.539 14.3,90.33 14.471,89.997L27.529,64.631L72.471,64.631L85.529,89.997C85.7,90.33 86.043,90.539 86.418,90.539L89.484,90.539C89.806,90.539 90.107,90.385 90.295,90.125C90.483,89.865 90.534,89.529 90.434,89.225ZM19.729,34.967C19.729,34.742 19.881,34.584 20.018,34.584L50.322,34.584C50.459,34.584 50.611,34.742 50.611,34.967L50.611,53.025L19.729,53.025L19.729,34.967ZM17.621,55.025L52.719,55.025L52.719,55.174C52.719,56.314 51.793,57.24 50.654,57.24L19.688,57.24C18.548,57.24 17.621,56.314 17.621,55.174L17.621,55.025ZM68.242,57.261C66.265,57.051 63.657,56.145 62.758,51.236C64.723,51.889 67.449,51.939 68.235,51.939C69.023,51.939 71.756,51.889 73.721,51.234C72.828,56.143 70.22,57.05 68.242,57.261ZM76.846,52.012C76.826,52.305 76.733,52.758 76.383,53.164C76.089,53.506 75.635,53.754 75.067,53.922C75.289,53.316 75.471,52.658 75.615,51.953C76.052,51.924 76.557,51.949 76.846,52.012ZM68.235,48.503C70.802,48.503 72.6,48.89 73.436,49.222C72.6,49.554 70.801,49.939 68.235,49.939C65.67,49.939 63.871,49.554 63.035,49.222C63.871,48.89 65.669,48.503 68.235,48.503ZM14.284,61.484L14.284,60.412C14.284,59.78 14.798,59.266 15.43,59.266L84.57,59.266C85.202,59.266 85.717,59.78 85.717,60.412L85.717,61.484C85.717,62.117 85.202,62.631 84.57,62.631L15.43,62.631C14.798,62.631 14.284,62.117 14.284,61.484ZM12.972,88.539L11.9,88.539L19.824,64.631L25.281,64.631L12.972,88.539ZM87.028,88.539L74.719,64.631L80.176,64.631L88.1,88.539L87.028,88.539Z" style="fill-rule:nonzero;"/>
    </g>
    <g transform="matrix(1,0,0,1,-9.51576,-9.46094)">
        <path d="M26.133,36.323C25.742,35.933 25.109,35.933 24.719,36.323L21.518,39.523C21.127,39.914 21.127,40.547 21.518,40.938C21.713,41.133 21.969,41.23 22.225,41.23C22.48,41.23 22.736,41.133 22.932,40.938L26.133,37.737C26.523,37.348 26.523,36.714 26.133,36.323Z" style="fill-rule:nonzero;"/>
    </g>
    <g transform="matrix(1,0,0,1,-9.51576,-9.46094)">
        <path d="M29.12,36.323L23.735,41.708C23.345,42.099 23.345,42.731 23.735,43.122C23.931,43.317 24.187,43.415 24.442,43.415C24.698,43.415 24.954,43.317 25.149,43.122L30.534,37.737C30.925,37.347 30.925,36.714 30.534,36.323C30.144,35.933 29.511,35.933 29.12,36.323Z" style="fill-rule:nonzero;"/>
    </g>
</svg>
