<?xml version="1.0" encoding="UTF-8" standalone="no"?>
<!DOCTYPE svg PUBLIC "-//W3C//DTD SVG 1.1//EN" "http://www.w3.org/Graphics/SVG/1.1/DTD/svg11.dtd">
<svg width="100%" height="100%" viewBox="0 0 100 66" version="1.1" xmlns="http://www.w3.org/2000/svg" xmlns:xlink="http://www.w3.org/1999/xlink" xml:space="preserve" xmlns:serif="http://www.serif.com/" style="fill-rule:evenodd;clip-rule:evenodd;stroke-linejoin:round;stroke-miterlimit:2;">
    <g transform="matrix(1,0,0,1,0,-17.084)">
        <path d="M97.94,17.084L2.059,17.084C0.924,17.084 0,18.033 0,19.2L0,80.8C0,81.966 0.924,82.915 2.059,82.915L100,82.915L100,19.2C100,18.033 99.076,17.084 97.94,17.084ZM81.261,35.182L64.19,35.182L64.19,28.354L81.26,28.354L81.26,35.182L81.261,35.182ZM83.261,28.354L98,28.354L98,35.182L83.261,35.182L83.261,28.354ZM81.261,53.548L64.19,53.548L64.19,46.718L81.26,46.718L81.26,53.548L81.261,53.548ZM83.261,46.718L98,46.718L98,53.548L83.261,53.548L83.261,46.718ZM81.261,71.911L64.19,71.911L64.19,65.082L81.26,65.082L81.26,71.911L81.261,71.911ZM83.261,65.082L98,65.082L98,71.911L83.261,71.911L83.261,65.082ZM48.061,80.829L48.061,73.911L62.191,73.911L62.191,80.829L48.061,80.829ZM48.061,71.911L48.061,65.082L62.191,65.082L62.191,71.911L48.061,71.911ZM12.859,65.082L26.989,65.082L26.989,71.911L12.859,71.911L12.859,65.082ZM10.859,71.911L2,71.911L2,65.082L10.859,65.082L10.859,71.911ZM12.859,46.718L26.989,46.718L26.989,53.548L12.859,53.548L12.859,46.718ZM10.859,53.548L2,53.548L2,46.718L10.859,46.718L10.859,53.548ZM46.061,55.548L46.061,63.082L28.99,63.082L28.99,55.548L46.061,55.548ZM28.99,53.548L28.99,46.718L46.061,46.718L46.061,53.548L28.99,53.548ZM48.061,55.548L62.191,55.548L62.191,63.082L48.061,63.082L48.061,55.548ZM48.061,53.548L48.061,46.718L62.191,46.718L62.191,53.548L48.061,53.548ZM48.061,44.718L48.061,37.182L62.191,37.182L62.191,44.718L48.061,44.718ZM46.061,44.718L28.99,44.718L28.99,37.182L46.061,37.182L46.061,44.718ZM26.99,44.718L12.86,44.718L12.86,37.182L26.99,37.182L26.99,44.718ZM26.99,55.548L26.99,63.082L12.86,63.082L12.86,55.548L26.99,55.548ZM28.99,65.082L46.061,65.082L46.061,71.911L28.99,71.911L28.99,65.082ZM64.19,63.082L64.19,55.548L81.26,55.548L81.26,63.082L64.19,63.082ZM64.19,44.718L64.19,37.182L81.26,37.182L81.26,44.718L64.19,44.718ZM62.19,28.354L62.19,35.182L48.06,35.182L48.06,28.354L62.19,28.354ZM46.061,35.182L28.99,35.182L28.99,28.354L46.061,28.354L46.061,35.182ZM26.99,35.182L12.86,35.182L12.86,28.354L26.99,28.354L26.99,35.182ZM10.859,35.182L2,35.182L2,28.354L10.859,28.354L10.859,35.182ZM2,37.182L10.859,37.182L10.859,44.718L2,44.718L2,37.182ZM2,55.548L10.859,55.548L10.859,63.082L2,63.082L2,55.548ZM2.059,80.915C2.047,80.915 2,80.879 2,80.8L2,73.911L10.859,73.911L10.859,80.915L2.059,80.915ZM12.859,80.915L12.859,73.911L26.989,73.911L26.989,80.915L12.859,80.915ZM28.99,73.911L46.061,73.911L46.061,80.915L28.99,80.915L28.99,73.911ZM64.19,80.915L64.19,73.911L81.26,73.911L81.26,80.915L64.19,80.915ZM98,80.8C98,80.875 97.956,80.915 97.94,80.915L83.26,80.915L83.26,73.911L98,73.911L98,80.8ZM98,63.082L83.261,63.082L83.261,55.548L98,55.548L98,63.082ZM98,44.718L83.261,44.718L83.261,37.182L98,37.182L98,44.718ZM98,26.354L64.19,26.354L64.19,26.266L46.06,26.266L46.06,26.354L2,26.354L2,19.2C2,19.12 2.047,19.084 2.059,19.084L97.94,19.084C97.954,19.084 98,19.12 98,19.2L98,26.354Z" style="fill-rule:nonzero;"/>
    </g>
</svg>
